<svg xmlns="http://www.w3.org/2000/svg" width="96.38" height="96.38" viewBox="0 0 96.38 96.38"><g fill="#17AB4E"><path d="M79.637 52.179a1.348 1.348 0 1 0-2.694 0c0 .942-.768 1.71-1.711 1.71-.942 0-1.71-.768-1.71-1.71a1.348 1.348 0 0 0-2.695 0 4.41 4.41 0 0 0 4.404 4.404 4.41 4.41 0 0 0 4.406-4.404z"/><path d="M5.693 49.998c-.14-.287.189-.793.397-1.068.331-.438.636-.526.866-.526a.94.94 0 0 1 .135.01c.62.082 1.487.764 1.947 1.906.108.27.249.715.281 1.271-1.863-.388-3.311-.945-3.626-1.593zm72.375-14.955c-.519 4.434-1.909 8.226-3.307 9.018-1.588.899-5.255 1.073-8.008-.94-2.757-2.017-3.675-5.643-2.654-10.486a1.63 1.63 0 0 1 .925-1.126c6.744-3.087 10.632-4.097 12.076-4.097.218 0 .38.023.488.065.434.462 1.004 3.091.48 7.566zm12.866 16.009l-3.791-1.215a1.585 1.585 0 0 1-1.023-1.036 24.45 24.45 0 0 0-3.584-7.09 26.033 26.033 0 0 0-2.395-2.824v.001c.56-2.454.863-5.231.824-7.631-.057-3.432-.742-5.444-2.097-6.154-.729-.382-2.949-1.544-14.965 3.956-.285.13-.551.29-.797.475-.81-.218-1.638-.42-2.471-.601-.101-.021-.204-.041-.305-.063a18.325 18.325 0 0 0 1.648-6.821 1.346 1.346 0 1 0-2.69-.121 15.651 15.651 0 0 1-4.581 10.389 15.596 15.596 0 0 1-5.674 3.625 39.061 39.061 0 0 0-10.842 0 15.6 15.6 0 0 1-5.675-3.625c-2.964-2.964-4.596-6.904-4.596-11.096s1.632-8.131 4.596-11.095 6.904-4.597 11.096-4.597 8.132 1.633 11.095 4.597a15.67 15.67 0 0 1 2.926 4.039 1.347 1.347 0 0 0 2.407-1.212 18.341 18.341 0 0 0-3.427-4.732c-3.472-3.473-8.089-5.385-13-5.385s-9.528 1.912-13.001 5.385a18.269 18.269 0 0 0-5.385 13 18.27 18.27 0 0 0 5.385 13.001 18.406 18.406 0 0 0 3.244 2.584h.001c-.837.218-1.668.463-2.49.737a1.347 1.347 0 0 0 .854 2.555 36.16 36.16 0 0 1 22.783 0 1.347 1.347 0 0 0 .854-2.555 38.01 38.01 0 0 0-2.491-.737h.001a18.333 18.333 0 0 0 5.592-5.467 52.116 52.116 0 0 1 2.546.563c-.015.059-.03.117-.043.177-.656 3.118-.614 5.875.127 8.195.666 2.085 1.868 3.774 3.572 5.021 2.009 1.47 4.434 2.104 6.63 2.104 1.653 0 3.178-.359 4.297-.993 1.267-.718 2.327-2.229 3.167-4.497.388.452.756.917 1.103 1.392a21.754 21.754 0 0 1 3.19 6.309 4.283 4.283 0 0 0 2.771 2.795l3.791 1.214a2.385 2.385 0 0 1 1.663 2.279v6.286a2.384 2.384 0 0 1-1.663 2.279l-6.108 1.957a4.152 4.152 0 0 0-2.328 1.891c-2.4 4.147-6.173 7.58-11.215 10.201A2.112 2.112 0 0 0 69.352 80l-1.956 10.358a.605.605 0 0 1-.595.493h-6.36a.606.606 0 0 1-.595-.493l-1.084-5.725a2.115 2.115 0 0 0-2.407-1.702 56.339 56.339 0 0 1-8.391.624c-2.104 0-4.181-.117-6.174-.35a2.135 2.135 0 0 0-2.334 1.713l-1.03 5.439a.605.605 0 0 1-.594.493h-6.361a.608.608 0 0 1-.596-.497l-1.884-9.784a2.114 2.114 0 0 0-1.087-1.471c-8.595-4.589-13.138-12.254-13.138-22.168 0-5.009 1.096-9.438 3.258-13.165 2.017-3.478 4.962-6.354 8.754-8.547a1.347 1.347 0 1 0-1.349-2.333C18.077 37.14 13.642 43.703 12.42 52.039v-.001c-.129-.012-.259-.022-.389-.036a6.707 6.707 0 0 0-.493-2.688c-.781-1.942-2.387-3.345-4.09-3.572-1.342-.18-2.619.391-3.506 1.562-1.285 1.698-1.075 3.042-.674 3.87.679 1.398 2.423 2.387 5.316 3.009a5.031 5.031 0 0 1-.263.359c-1.71 2.145-3.725 2.618-5.032 2.663a1.414 1.414 0 0 0-1.379 1.407v.006a1.41 1.41 0 0 0 1.352 1.407c.097.005.197.007.303.007 1.655 0 4.312-.61 6.864-3.811.402-.505.73-1.038.983-1.589.254.029.498.054.732.075v-.002c-.046.73-.071 1.471-.071 2.225 0 5.609 1.337 10.61 3.974 14.865 2.432 3.923 5.913 7.135 10.351 9.551l1.831 9.512a3.302 3.302 0 0 0 3.242 2.686h6.361a3.302 3.302 0 0 0 3.241-2.686l.931-4.919c1.934.205 3.936.309 5.96.309 2.776 0 5.55-.193 8.253-.575l.981 5.187a3.302 3.302 0 0 0 3.241 2.685H66.8a3.302 3.302 0 0 0 3.242-2.686l1.904-10.086c5.382-2.846 9.438-6.584 12.059-11.113.188-.326.479-.566.818-.675l6.108-1.956a5.073 5.073 0 0 0 3.535-4.846v-6.286a5.063 5.063 0 0 0-3.532-4.845z"/><path d="M44.778 22.313v5.01c1.282-.237 2.09-.997 2.09-2.351 0-1.495-.926-2.16-2.09-2.659zm-1.116-3.087v-4.321c-1.329.166-2.279.76-2.279 1.994 0 1.353 1.021 1.852 2.279 2.327zm-.142 10.449c-2.944-.048-4.938-1.639-4.938-2.803 0-.569.498-1.354 1.092-1.354.784 0 1.425 1.662 3.847 1.853v-5.58c-2.137-.76-4.512-1.615-4.512-4.654 0-2.992 2.256-4.18 4.512-4.417v-.69c0-.284.285-.546.689-.546.355 0 .712.262.712.546v.642c1.615.048 3.895.546 3.895 1.71 0 .451-.332 1.354-1.045 1.354-.569 0-1.188-.76-2.85-.879v4.82c2.066.76 4.322 1.805 4.322 5.035 0 2.921-1.758 4.535-4.322 4.892v.807c0 .285-.355.547-.712.547-.404 0-.689-.262-.689-.547v-.736h-.001z"/></g></svg>