<svg xmlns="http://www.w3.org/2000/svg" xmlns:xlink="http://www.w3.org/1999/xlink" width="96.38" height="96.38" viewBox="0 0 96.38 96.38"><defs><path id="a" d="M2.828 2.836h90.724v90.708H2.828z"/></defs><clipPath id="b"><use xlink:href="#a" overflow="visible"/></clipPath><path clip-path="url(#b)" fill="#454545" d="M16.903 66.953h9.383V85.72h-9.383V66.953zm16.476 1.565a33.578 33.578 0 0 1 14.939 3.526 11.059 11.059 0 0 0 4.934 1.165h12.131a2.345 2.345 0 0 1 .516 4.631c-.204.019-.405.061-.612.061h-18.67v3.128h18.767c.031 0 .061-.01.094-.01a9.612 9.612 0 0 0 3.609-.765l13.075-5.55a2.482 2.482 0 0 1 1.95 0 2.58 2.58 0 0 1 1.407 1.456 2.68 2.68 0 0 1-.042 2.078 2.583 2.583 0 0 1-1.448 1.388L59.87 88.837a23.936 23.936 0 0 1-17.597-.189l-12.859-5.347V68.518h3.965zm3.854-11.382c0-11.26 4.6-26.04 17.515-30.843h18.141c12.916 4.803 17.516 19.583 17.516 30.843a18.54 18.54 0 0 1-5.859 14.44 5.567 5.567 0 0 0-3.606.249L70.8 76.13c.029-.19.049-.382.058-.575a5.475 5.475 0 0 0-5.474-5.474H53.252a7.945 7.945 0 0 1-3.536-.835 36.633 36.633 0 0 0-10.776-3.412 21.422 21.422 0 0 1-1.707-8.698zm34.405-38.661v4.691H56v-4.691h15.638zM51.308 5.963h2.48l2.67 2.67c.61.61 1.601.61 2.211 0l2.67-2.67h4.96l2.67 2.67c.61.61 1.601.61 2.211 0l2.67-2.67h2.48v6.443l-3.677 2.94H54.981l-3.674-2.94V5.963h.001zM15.34 88.848h12.511c.863 0 1.563-.7 1.563-1.563v-.597l11.676 4.849a27.056 27.056 0 0 0 19.901.221l24.158-9.213a5.69 5.69 0 0 0 3.195-3.045 5.747 5.747 0 0 0-1.014-6.241 21.693 21.693 0 0 0 6.201-16.122c0-12.042-4.961-27.788-18.767-33.439v-6.033l4.105-3.285c.37-.297.587-.746.586-1.221v-8.76c0-.863-.7-1.563-1.563-1.563h-4.691a1.56 1.56 0 0 0-1.105.458l-2.022 2.022-2.022-2.022a1.562 1.562 0 0 0-1.105-.458h-6.255c-.415 0-.813.165-1.106.458l-2.021 2.022-2.022-2.022a1.562 1.562 0 0 0-1.105-.458h-4.691c-.863 0-1.563.7-1.563 1.563v8.758a1.56 1.56 0 0 0 .586 1.221l4.105 3.285v6.033C39.069 29.347 34.108 45.1 34.108 57.135a25.573 25.573 0 0 0 1.298 8.313c-.672-.037-1.35-.06-2.024-.06h-3.965c0-.863-.7-1.563-1.563-1.563H15.34c-.864 0-1.564.7-1.564 1.563H2.828v3.128h10.947v15.639H2.828v3.128h10.947c0 .864.701 1.565 1.565 1.565z"/><path fill="#454545" d="M20.031 79.465h3.127v3.127h-3.127v-3.127zm41.823-23.458h.401v3.128h3.128v-3.128h.401a4.29 4.29 0 1 0 1.356-8.36l-5.653-1.885a1.162 1.162 0 0 1 .366-2.266h3.931c.643 0 1.162.521 1.162 1.163v1.026h3.128v-1.026a4.294 4.294 0 0 0-4.29-4.291h-.401V37.24h-3.128v3.128h-.401a4.29 4.29 0 0 0-1.356 8.36l5.653 1.885a1.162 1.162 0 0 1-.366 2.266h-3.931a1.163 1.163 0 0 1-1.162-1.163V50.69h-3.128v1.026a4.294 4.294 0 0 0 4.29 4.291z"/><path fill="#454545" d="M63.818 34.112c7.773 0 14.075 6.302 14.075 14.075s-6.302 14.074-14.075 14.074c-7.772 0-14.074-6.301-14.074-14.074.009-7.769 6.305-14.066 14.074-14.075zm0 31.278c9.501 0 17.203-7.701 17.203-17.202s-7.702-17.202-17.203-17.202c-9.5 0-17.202 7.701-17.202 17.202.012 9.496 7.707 17.191 17.202 17.202z"/></svg>