<svg xmlns="http://www.w3.org/2000/svg" width="96.38" height="96.38" viewBox="0 0 96.38 96.38"><path d="M62.542 13.118l.49.161-.309.428c-.635.884.005 2.105 1.077 2.105.775 0 1.076-.547 1.37-.955l.291.403a1.329 1.329 0 0 0 2.157-1.553l-.309-.428.49-.161a1.33 1.33 0 0 0-.828-2.525l-.473.154v-.517a1.329 1.329 0 0 0-2.657 0v.517l-.472-.154a1.329 1.329 0 1 0-.827 2.525zm13.139 14.264l.491.16-.309.429a1.326 1.326 0 0 0 .302 1.854c.597.43 1.426.294 1.854-.302l.291-.402c.278.388.584.956 1.369.956 1.07 0 1.714-1.222 1.078-2.105l-.31-.429.49-.16a1.33 1.33 0 0 0-.828-2.527l-.472.155v-.517a1.329 1.329 0 0 0-2.657 0v.517l-.473-.155a1.329 1.329 0 1 0-.826 2.526zm-11.635-6.077c.733 0 1.329.596 1.329 1.329s-.596 1.329-1.329 1.329a1.329 1.329 0 0 1 0-2.658zm21.26 21.509a1.329 1.329 0 1 1 0 2.658 1.329 1.329 0 0 1 0-2.658zm-13.819-10.17a1.328 1.328 0 1 1 0 2.656 1.328 1.328 0 0 1 0-2.656zM85.84 15.281a1.329 1.329 0 1 1-.001 2.657 1.329 1.329 0 0 1 .001-2.657zM47.766 31.19l-.441 2.576a2.632 2.632 0 0 0 .766 2.353 2.662 2.662 0 0 0 1.856.757c.829 0 1.122-.248 3.545-1.523h.001l2.313 1.215c1.758.933 3.898-.361 3.894-2.344a2.66 2.66 0 0 0-.039-.457l-.441-2.576 1.871-1.822a2.656 2.656 0 0 0-1.472-4.534 1.334 1.334 0 0 0-1.507 1.125 1.33 1.33 0 0 0 1.123 1.507l-2.37 2.309a1.33 1.33 0 0 0-.382 1.177l.559 3.264h-.002c-3.903-2.054-3.217-2.04-7.091-.002h-.003c-.001.002-.001.002-.003.002l.56-3.264a1.335 1.335 0 0 0-.38-1.177l-2.373-2.309 3.277-.478c.433-.063.807-.335.999-.727l1.467-2.97.578 1.172c.225.457.683.742 1.192.742a1.332 1.332 0 0 0 1.192-1.919l-.579-1.171c-.976-1.998-3.816-1.947-4.768 0l-1.155 2.342c-2.636.384-3.461.329-4.259 1.318a2.653 2.653 0 0 0-.603 1.695c-.009 1.38.796 1.887 2.675 3.719zM14.13 84.819l-7.517-7.517 5.564-5.564 24.574-24.575h.001l5.563-5.564 7.518 7.516L14.13 84.819zM6.145 63.825a2.19 2.19 0 0 1-.572-2.139 2.193 2.193 0 0 1 1.565-1.566l8.728-2.338c.036.855.239 1.698.604 2.488l-5.761 1.543a1.328 1.328 0 1 0 .689 2.567l5.982-1.604c-2.214 2.216-4.313 4.314-6.142 6.143l-5.093-5.094zm13.626-3.437c-2.252-2.122-1.321-5.868 1.61-6.724a3.97 3.97 0 0 1 4.021 1.092l-5.631 5.632zm5.364-18.265c.441-1.646 2.499-2.2 3.705-.993l5.094 5.094-6.142 6.143 1.603-5.983a1.33 1.33 0 0 0-2.567-.688l-1.543 5.76a6.575 6.575 0 0 0-2.487-.604l2.337-8.729zm33.233 4.401c.09-.276-.042-.184 4.375-.824a1.326 1.326 0 0 0 1-.728c1.981-4.014 1.85-3.906 2.136-3.906.288 0 .155-.107 2.137 3.906.193.393.567.664 1 .728l4.104.596c.278.04.388.376.187.572l-2.583 2.518h-9.688c-2.776-2.707-2.757-2.589-2.668-2.862zm33.847 2.862H74.53l.631-.615c1.775-1.729.794-4.748-1.659-5.104l-3.412-.497-1.526-3.092c-1.098-2.224-4.271-2.224-5.367 0L61.67 43.17l-3.412.496c-2.454.356-3.435 3.375-1.659 5.104l.63.615h-4.754a2.652 2.652 0 0 0-.762-2.149l-7.517-7.517a2.662 2.662 0 0 0-3.759 0l-4.625 4.625-5.093-5.094c-1.245-1.245-3.005-1.717-4.706-1.261s-2.989 1.743-3.445 3.444l-2.663 9.941a6.598 6.598 0 0 0-3.514 3.514L6.45 57.554c-3.622.971-4.838 5.496-2.185 8.15l5.095 5.095-4.626 4.624a2.658 2.658 0 0 0 0 3.759l7.518 7.517a2.647 2.647 0 0 0 1.878.776c.682 0 1.361-.259 1.88-.776l34.653-34.654h40.225V83.49a1.337 1.337 0 0 1-1.329 1.329H44.735a1.336 1.336 0 0 1-1.329-1.329V66.544a1.33 1.33 0 0 0-1.328-1.329 1.33 1.33 0 0 0-1.328 1.326V83.49c0 1.064.414 2.066 1.167 2.819a3.967 3.967 0 0 0 2.818 1.167h44.823a3.984 3.984 0 0 0 3.985-3.986V50.715a1.33 1.33 0 0 0-1.328-1.329z" fill="#454545"/></svg>