<svg xmlns="http://www.w3.org/2000/svg" width="96.38" height="96.38" viewBox="0 0 96.38 96.38"><path fill="#17AB4E" d="M35.766 23.539c.502 1.033.095 2.279-.939 2.783-10.699 5.207-17.3 15.828-17.3 27.719v8.408c0 1.15-1.021 2.168-2.172 2.168h-4.343c-3.542 0-6.445-2.969-6.445-6.51v-9.498a6.417 6.417 0 0 1 4.473-6.117c1.094-.354 2.276.248 2.628 1.344s-.254 2.27-1.349 2.621c-.928.299-1.587 1.184-1.587 2.152v9.498c0 1.246 1.036 2.344 2.28 2.344h2.348v-6.41c0-6.686 1.849-13.186 5.431-18.795 3.485-5.459 8.355-9.84 14.167-12.67a2.11 2.11 0 0 1 2.808.963zm23.63 4.525c1.024-1.043 1.99-2.029 1.99-4.373a5.905 5.905 0 0 0-5.9-5.898 5.905 5.905 0 0 0-5.9 5.898c0 1.15.933 2.084 2.083 2.084s2.083-.934 2.083-2.084c0-.955.778-1.734 1.734-1.734s1.735.779 1.735 1.734c0 .643 0 .643-.798 1.457-.123.123-.251.254-.389.398l-5.847 6.104c-.016.018-.03.033-.03.053 0 0-.021.002-.022.004l-.011.002a2.135 2.135 0 0 0-.381.598 2.104 2.104 0 0 0-.156.791c0 .293.06.57.169.822.106.248.229.48.436.68h-.034l.039-.068h.018c.002 0 .012.039.013.041l.004.02c.205.191.441.346.688.441.205.078.426.131.656.141.002 0 .005.025.006.025.029 0 .059.027.086.027h7.488a2.084 2.084 0 0 0 0-4.166h-2.599l2.481-2.604c.128-.133.246-.277.358-.393zm32.418 20.545v9.496c0 3.543-2.788 6.512-6.331 6.512h-3.847a35.445 35.445 0 0 1-5.969 11.15c-4.435 5.596-10.54 9.664-17.328 11.711-.306 3.428-3.192 6.066-6.697 6.066h-6.791c-3.708 0-6.723-3.006-6.723-6.711 0-3.709 3.015-6.711 6.723-6.711h6.791c2.44 0 4.582 1.35 5.759 3.299A30.683 30.683 0 0 0 79.057 54.04c0-3.076-.448-6.092-1.333-8.992a23.547 23.547 0 0 1-14.649 5.094c-13.043 0-23.657-10.609-23.657-23.654 0-13.043 10.613-23.652 23.657-23.652S86.73 13.453 86.73 26.496a23.577 23.577 0 0 1-5.689 15.383 34.933 34.933 0 0 1 2.184 12.205c0 2.146-.19 4.285-.564 6.367h2.823c1.245 0 2.164-1.098 2.164-2.346v-9.496c0-.969-.613-1.854-1.541-2.152-1.093-.352-1.661-1.525-1.308-2.621a2.055 2.055 0 0 1 2.596-1.344c2.671.86 4.419 3.319 4.419 6.117zM54.2 86.867c0-.17-.016-.291-.048-.451-.004-.025-.01-.072-.015-.096-.26-1.137-1.279-2.031-2.493-2.031h-6.792c-1.409 0-2.556 1.135-2.556 2.545s1.147 2.545 2.556 2.545h6.792c1.409 0 2.556-1.102 2.556-2.512zm28.365-60.381c0-10.748-8.744-19.49-19.49-19.49-10.748 0-19.49 8.742-19.49 19.49 0 10.746 8.743 19.49 19.49 19.49 10.746.001 19.49-8.744 19.49-19.49zm-8.096-8.617h.007-.01c-1.151 0-2.092.855-2.092 2.006v3.867c0 .936-.793 1.693-1.736 1.693a1.738 1.738 0 0 1-1.736-1.734v-3.826a2.082 2.082 0 1 0-4.166 0v3.826c0 3.254 2.648 5.9 5.902 5.9.604 0 1.272-.092 1.736-.26v3.756a2.082 2.082 0 0 0 4.165 0V19.875c0-1.15-.919-2.006-2.07-2.006zm0 0"/></svg>