<svg xmlns="http://www.w3.org/2000/svg" width="96.38" height="96.38" viewBox="0 0 96.38 96.38"><g fill="#454545"><path d="M22.489 57.261V46.678h33.26v10.583c0 .835-.677 1.512-1.512 1.512H24.001a1.513 1.513 0 0 1-1.512-1.512zm1.512-19.654h30.236c.835 0 1.512.677 1.512 1.512v4.535h-33.26v-4.535c0-.835.677-1.512 1.512-1.512zm34.772 19.654V39.119a4.535 4.535 0 0 0-4.536-4.535H24.001a4.535 4.535 0 0 0-4.536 4.535v18.142a4.535 4.535 0 0 0 4.536 4.535h30.236a4.535 4.535 0 0 0 4.536-4.535z"/><path d="M72.379 90.521H52.726V72.379c0-.835-.677-1.512-1.512-1.512h-1.512a22.497 22.497 0 0 1-8.368-1.605 1.547 1.547 0 0 1-.907-.93c-.146-.415-.1-.873.125-1.251a1.415 1.415 0 0 1 1.766-.663c10.064 4.064 21.519-.8 25.583-10.864 4.064-10.065-.8-21.519-10.864-25.584a19.662 19.662 0 0 0-14.576-.057 1.544 1.544 0 0 1-1.966-.669 1.417 1.417 0 0 1-.118-1.18c.146-.425.467-.766.881-.938a22.953 22.953 0 0 1 20.024 1.578 22.191 22.191 0 0 1 5.352 4.394l.014.017.069.085c.5.563.972 1.152 1.411 1.765.175.241.319.502.482.756.251.381.513.756.736 1.15.04.084.084.166.133.244.254.454.484.887.692 1.319.208.432.396.855.565 1.281a22.648 22.648 0 0 1 1.626 8.474c0 .071.006.143.015.214v42.118h.002zM59.098 8.789c.2-.348.532-.601.921-.7a1.462 1.462 0 0 1 1.141.151c.346.196.599.523.703.907l5.453 20.315c-.11-.103-.231-.19-.343-.292a25.278 25.278 0 0 0-1.315-1.121 23.571 23.571 0 0 0-1.936-1.382c-.124-.082-.24-.177-.366-.254L58.946 9.94a1.5 1.5 0 0 1 .152-1.151zm10.257-1.418a1.512 1.512 0 0 1 3.024 0v28.753a34.46 34.46 0 0 0-.284-.51l-2.739-10.211V7.371h-.001zm10.71 4.753a1.517 1.517 0 1 1 2.932.786l-7.594 28.338V29.552l4.662-17.428zm5.854 1.564v-.008a4.54 4.54 0 0 0-8.768-2.347l-1.748 6.522V7.371a4.536 4.536 0 0 0-9.071 0v6.77l-1.547-5.765a4.535 4.535 0 1 0-8.758 2.35l3.702 13.841a26.005 26.005 0 0 0-19.598-.24 4.592 4.592 0 0 0-2.611 2.767 4.558 4.558 0 0 0 6.056 5.631c8.545-3.367 18.202.83 21.569 9.375s-.83 18.202-9.375 21.569a16.632 16.632 0 0 1-12.346-.061 4.456 4.456 0 0 0-5.501 1.965 4.506 4.506 0 0 0-.358 3.756 4.561 4.561 0 0 0 2.656 2.748 25.518 25.518 0 0 0 9.479 1.814v18.142c0 .835.677 1.513 1.512 1.513h22.677c.834 0 1.512-.678 1.512-1.513v-39.11l10.518-39.235zM11.906 49.702v-3.024H8.883v-3.024H5.859v3.024H2.835v3.024h3.024v3.024h3.024v-3.024h3.023zm78.615-6.048h-3.024v3.024h-3.023v3.024h3.023v3.024h3.024v-3.024h3.023v-3.024h-3.023v-3.024zM14.93 17.953v3.025h-3.024v3.023h3.024v3.023h3.024v-3.023h3.024v-3.023h-3.024v-3.025H14.93zm3.024 51.402H14.93v3.024h-3.024v3.023h3.024v3.024h3.024v-3.024h3.024v-3.023h-3.024v-3.024zm66.52 0H81.45v3.024h-3.024v3.023h3.024v3.024h3.024v-3.024h3.023v-3.023h-3.023v-3.024zM42.143 2.835v3.024h-3.024v3.024h3.024v3.023h3.024V8.883h3.023V5.859h-3.023V2.835h-3.024zm0 81.639h-3.024v3.023h-3.023v3.024h3.023v3.024h3.024v-3.024h3.024v-3.024h-3.024v-3.023z"/></g></svg>