<svg xmlns="http://www.w3.org/2000/svg" xmlns:xlink="http://www.w3.org/1999/xlink" width="96.38" height="96.38" viewBox="0 0 96.38 96.38"><defs><path id="a" d="M2.828 2.836h90.724v90.708H2.828z"/></defs><clipPath id="b"><use xlink:href="#a" overflow="visible"/></clipPath><path clip-path="url(#b)" fill="#17AB4E" d="M90.967 87.846c0 .17-.018.336-.044.498L61.661 64.288l29.306-22.393v45.951zm-1.62 2.716c-.017.01-.033.02-.05.028a3.15 3.15 0 0 1-.249.118l-.032.013a3.176 3.176 0 0 1-.549.169l-.042.009a3.02 3.02 0 0 1-.272.041c-.021.003-.042.004-.064.006a2.967 2.967 0 0 1-.284.015H8.575c-.096 0-.191-.006-.285-.015l-.063-.005a3.925 3.925 0 0 1-.317-.052 3.128 3.128 0 0 1-.545-.167l-.035-.014a3.262 3.262 0 0 1-.283-.138c-.045-.024-.088-.052-.131-.078L36.828 65.9l7.036 5.376c.012.009.023.018.036.025 2.526 1.798 6.056 1.798 8.582 0l.035-.025 7.035-5.376 29.914 24.591c-.04.025-.079.049-.119.071zM13.875 45.108v-27.88c0-1.087.884-1.972 1.971-1.972h64.687c1.087 0 1.971.885 1.971 1.972v27.881L50.966 69.207c-1.411.993-3.369 1.118-4.917.373a4.393 4.393 0 0 1-.635-.372c0-.001 0 0 0 0l-31.539-24.1zm32.742-39.09c.97-.798 2.175-.798 3.145 0l8.094 6.653H38.523l8.094-6.653zM85.09 35.061l5.09 4.184-5.09 3.89v-8.074zm-73.8 8.073l-5.089-3.89 5.089-4.184v8.074zm82.26-3.88a1.46 1.46 0 0 0-.009-.133l-.008-.051a1.494 1.494 0 0 0-.084-.291l-.011-.027a1.223 1.223 0 0 0-.078-.148l-.015-.021a1.275 1.275 0 0 0-.234-.271c-.011-.009-.02-.02-.031-.028l-7.99-6.569V17.228a4.561 4.561 0 0 0-4.556-4.556H61.926L51.403 4.021c-1.922-1.58-4.505-1.58-6.428 0l-10.522 8.651H15.846a4.561 4.561 0 0 0-4.556 4.556v14.487L3.3 38.283l-.028.026-.045.041a1.4 1.4 0 0 0-.075.079l-.037.043a1.281 1.281 0 0 0-.074.103c-.006.011-.014.02-.021.03a1.341 1.341 0 0 0-.077.145l-.015.037c-.016.038-.03.077-.042.116l-.015.055a1.386 1.386 0 0 0-.023.108l-.009.058a1.27 1.27 0 0 0-.009.124l-.002.034v35.697a1.292 1.292 0 0 0 2.584 0V41.896l29.305 22.393L5.458 88.344a3.024 3.024 0 0 1-.044-.498v-4.705a1.293 1.293 0 1 0-2.584 0v4.705c0 1.223.392 2.355 1.055 3.285.012.019.023.037.037.056l.032.04a6.445 6.445 0 0 0 .573.659l.036.038.011.011c.076.073.155.145.242.22l.015.013.079.063.035.028c.04.032.08.066.122.098l.017.014c.013.01.027.018.04.027.1.074.203.146.308.214l.102.064c.112.069.227.136.344.198l.034.02.05.025c.038.02.079.041.122.061l.005.003.109.051.059.025c.021.01.044.019.066.028l.03.013.147.06.055.021.024.008c.054.02.109.038.164.057l.106.036a.019.019 0 0 0 .007.002 6.574 6.574 0 0 0 .303.085l.01.003.077.018.054.012c.055.013.11.024.167.035l.013.003.111.021.018.002a5.288 5.288 0 0 0 .192.029l.118.016h.011c.062.008.125.013.188.018a.212.212 0 0 0 .024.002l.018.002c.029.002.058.005.088.006h.002c.107.007.216.01.325.01h79.231c.109 0 .217-.003.324-.009l.004-.001c.029-.001.058-.004.086-.006l.018-.002.021-.002c.064-.005.127-.01.191-.017l.01-.001a8.884 8.884 0 0 0 .308-.044l.021-.003.109-.02.015-.003.171-.037.054-.012a.802.802 0 0 0 .08-.019c.098-.025.195-.052.292-.081l.014-.004.007-.003c.077-.023.155-.051.234-.079l.024-.009.041-.015.061-.023.077-.032.11-.045.044-.019.072-.032c.034-.015.067-.03.101-.047h.001l.137-.067.047-.023.034-.02a6.011 6.011 0 0 0 .745-.472l.042-.028.017-.014c.042-.031.082-.065.122-.099a2.49 2.49 0 0 0 .114-.091l.022-.02.083-.075.022-.021c.038-.035.077-.068.114-.104l.014-.013.041-.042a5.655 5.655 0 0 0 .347-.374c.081-.095.158-.19.232-.29l.032-.041c.014-.019.025-.038.038-.057a5.636 5.636 0 0 0 1.054-3.283V39.282l-.003-.028z"/><path fill="#17AB4E" d="M71.055 51.063c0-.714-.579-1.292-1.292-1.292H26.618a1.291 1.291 0 1 0 0 2.584h43.145a1.293 1.293 0 0 0 1.292-1.292zm-2.942-6.979h5.043a1.292 1.292 0 0 0 .001-2.584h-5.043a1.291 1.291 0 1 0-.001 2.584zm-6.999-1.292c0-.714-.579-1.292-1.292-1.292h-36.53a1.291 1.291 0 1 0 0 2.584h36.53c.714 0 1.292-.578 1.292-1.292zM36.117 22.095h-8.188c-.598 0-.911.587-.911 1.167 0 .688.383 1.188.911 1.188h2.838v11.598c0 .536.521.911 1.266.911.629 0 1.267-.313 1.267-.911V24.449h2.817c.537 0 .911-.496.911-1.207 0-.553-.285-1.147-.911-1.147zm9.664 9.509l1.679-5.759 1.679 5.759h-3.358zm3.23-8.767c-.174-.522-.783-.861-1.551-.861-.755 0-1.356.339-1.533.866l-3.924 12.78c-.031.093-.031.179-.031.247 0 .642.803 1.089 1.523 1.089.625 0 .856-.32.942-.594l.763-2.643h4.542l.764 2.647c.119.379.446.589.921.589.729 0 1.542-.466 1.542-1.089a.749.749 0 0 0-.049-.242l-3.909-12.789zm20.182 12.408l-3.349-5.73 3.253-5.691c.123-.223.186-.431.186-.62 0-.688-.803-1.168-1.522-1.168-.42 0-.771.255-.983.707l-2.567 4.694-2.529-4.692c-.31-.586-.706-.709-.984-.709-.729 0-1.542.479-1.542 1.168 0 .189.063.397.187.622l3.251 5.689-3.356 5.743c-.095.19-.142.358-.142.513 0 .69.854 1.247 1.562 1.247.331 0 .645-.213.864-.588l2.689-4.898 2.722 4.891c.144.288.442.596.848.596.732 0 1.582-.545 1.582-1.247-.001-.159-.066-.321-.17-.527z"/></svg>