<svg xmlns="http://www.w3.org/2000/svg" width="73.333" height="22" viewBox="-6.667 -4 73.333 22"><path fill="#E6352C" d="M-5 1.322h2.873l.492 8.435 4.1-8.435h3.014l-6.553 12.285h-2.594L-5 1.322zm10.899.035h2.874l-2.067 9.605H3.831l2.068-9.605zm11.312 5.691h-5.882c-.07.299-.236 2.14 2.033 2.14 1.488 0 1.928-.166 2.627-.501l.315 1.604c-.945.536-1.858.638-2.873.737-2.951 0-4.799-.836-4.767-3.98.055-4.964 4.461-5.948 5.607-5.926 5.364.101 2.94 5.926 2.94 5.926zM14.956 5.24c.141-.351.787-2.511-.945-2.511-1.049 0-1.682.47-2.169 1.387-.213.504-.321.84-.406 1.124h3.52zM36.55 7.048h-5.877c-.071.299-.235 2.14 2.032 2.14 1.487 0 1.927-.166 2.627-.501l.313 1.604c-.943.536-1.854.638-2.872.737-2.95 0-4.798-.836-4.765-3.98.055-4.964 4.461-5.948 5.606-5.926 5.362.101 2.936 5.926 2.936 5.926zM34.297 5.24c.142-.351.787-2.511-.943-2.511-1.05 0-1.684.47-2.167 1.387-.217.504-.321.84-.409 1.124h3.519zM19.947-.096s.341-.501 1.367-.741c1.024-.238 1.773-.042 1.773-.042l-.553 2.252h1.485l-.341 1.733-1.643.036-1.025 4.934c-.037.178-.301 1.556 1.51 1.08 0 0-.774 2.246-2.995 1.806-.726-.145-1.733-.903-1.521-2.219l1.943-8.839zm19.391 0s.343-.501 1.366-.741c1.027-.238 1.775-.042 1.775-.042l-.552 2.252h1.485l-.342 1.734-1.644.036-1.023 4.934c-.037.178-.304 1.556 1.511 1.08 0 0-.775 2.246-2.996 1.806-.728-.145-1.733-.903-1.522-2.219l1.942-8.84z"/><path fill="#E6352C" d="M25.329 1.345h2.776l-1.918 9.216c-.605 2.735-3.351 5.344-6.965 4.217-1.287-.4-2.154-1.63-1.97-2.86 0 0 1.094.905 2.706.978 2.234.101 3.245-2.052 3.392-2.71l1.979-8.841zm30.38-2.13h2.873l-2.067 9.608h-2.873l2.067-9.608zm-5.325 9.608h-3.891l-1.715 2.741h-2.804L49.72-.781h3.012l.491 12.345h-2.84V8.823zm-.011-1.759V2.023L47.42 7.064h2.953zM64.33.963c-.461-.113-1.472-.189-1.932 0L60.69 8.846h-2.853l1.971-9.05c1.657-.929 3.722-.94 5.191-.74L64.33.963z"/></svg>